<svg width="134" height="47" viewBox="0 0 134 47" fill="none" xmlns="http://www.w3.org/2000/svg">
<path d="M40.125 7.5H40.65V15.05H40.725C40.8583 14.7833 41.0417 14.5167 41.275 14.25C41.5083 13.9667 41.7917 13.725 42.125 13.525C42.4583 13.3083 42.8417 13.1333 43.275 13C43.7083 12.8667 44.2 12.8 44.75 12.8C46.4167 12.8 47.7083 13.3667 48.625 14.5C49.5417 15.6167 50 17.3 50 19.55C50 21.8 49.5417 23.4917 48.625 24.625C47.7083 25.7417 46.4167 26.3 44.75 26.3C44.2 26.3 43.7083 26.2333 43.275 26.1C42.8417 25.9667 42.4583 25.8 42.125 25.6C41.7917 25.3833 41.5083 25.1417 41.275 24.875C41.0417 24.6083 40.8583 24.3333 40.725 24.05H40.65V26H40.125V7.5ZM44.75 25.825C46.2667 25.825 47.425 25.325 48.225 24.325C49.025 23.3083 49.425 21.9167 49.425 20.15V18.95C49.425 17.1833 49.025 15.8 48.225 14.8C47.425 13.7833 46.2667 13.275 44.75 13.275C44.2167 13.275 43.7 13.3583 43.2 13.525C42.7 13.6917 42.2583 13.925 41.875 14.225C41.5083 14.525 41.2083 14.8833 40.975 15.3C40.7583 15.7167 40.65 16.175 40.65 16.675V22.425C40.65 22.925 40.7583 23.3833 40.975 23.8C41.2083 24.2167 41.5083 24.575 41.875 24.875C42.2583 25.175 42.7 25.4083 43.2 25.575C43.7 25.7417 44.2167 25.825 44.75 25.825ZM63.3402 26C62.8569 26 62.6152 25.7583 62.6152 25.275V24.075H62.5402C62.2236 24.675 61.7236 25.2 61.0402 25.65C60.3736 26.0833 59.4319 26.3 58.2152 26.3C56.8319 26.3 55.7736 26 55.0402 25.4C54.3069 24.7833 53.9402 23.9 53.9402 22.75C53.9402 22.2333 54.0152 21.75 54.1652 21.3C54.3319 20.85 54.5986 20.4667 54.9652 20.15C55.3486 19.8333 55.8569 19.5833 56.4902 19.4C57.1236 19.2167 57.9152 19.125 58.8652 19.125H62.6152V17.1C62.6152 15.8 62.2819 14.8417 61.6152 14.225C60.9486 13.5917 60.0319 13.275 58.8652 13.275C57.9486 13.275 57.1319 13.475 56.4152 13.875C55.6986 14.2583 55.1569 14.8833 54.7902 15.75L54.3652 15.5C54.7319 14.6667 55.2819 14.0083 56.0152 13.525C56.7652 13.0417 57.7152 12.8 58.8652 12.8C60.2152 12.8 61.2652 13.1667 62.0152 13.9C62.7652 14.6333 63.1402 15.675 63.1402 17.025V25.525H65.2652V26H63.3402ZM58.2152 25.825C58.7986 25.825 59.3569 25.75 59.8902 25.6C60.4236 25.45 60.8902 25.2333 61.2902 24.95C61.6902 24.65 62.0069 24.2833 62.2402 23.85C62.4902 23.4 62.6152 22.8833 62.6152 22.3V19.575H58.8902C57.3069 19.575 56.1819 19.8333 55.5152 20.35C54.8486 20.8667 54.5152 21.5333 54.5152 22.35V23.15C54.5152 24.0167 54.8569 24.6833 55.5402 25.15C56.2236 25.6 57.1152 25.825 58.2152 25.825ZM75.0305 26.3C73.3638 26.3 72.0638 25.7417 71.1305 24.625C70.1971 23.4917 69.7305 21.8 69.7305 19.55C69.7305 17.3 70.1971 15.6167 71.1305 14.5C72.0638 13.3667 73.3638 12.8 75.0305 12.8C76.1638 12.8 77.0971 13.0667 77.8305 13.6C78.5805 14.1167 79.0971 14.7833 79.3805 15.6L78.9055 15.75C78.5888 14.95 78.0971 14.3417 77.4305 13.925C76.7805 13.4917 75.9805 13.275 75.0305 13.275C73.5138 13.275 72.3471 13.7833 71.5305 14.8C70.7138 15.8 70.3055 17.1833 70.3055 18.95V20.15C70.3055 21.9167 70.7138 23.3083 71.5305 24.325C72.3471 25.325 73.5138 25.825 75.0305 25.825C76.0305 25.825 76.8721 25.5917 77.5555 25.125C78.2388 24.6583 78.7555 24.0333 79.1055 23.25L79.5555 23.45C79.3888 23.8333 79.1638 24.2 78.8805 24.55C78.6138 24.9 78.2888 25.2083 77.9055 25.475C77.5388 25.725 77.1138 25.925 76.6305 26.075C76.1471 26.225 75.6138 26.3 75.0305 26.3ZM85.4457 7.5H85.9707V20.525H86.0457L88.9957 17.95L94.5957 13.1H95.2957L89.4957 18.15L95.9957 26H95.3457L89.0957 18.5L85.9707 21.2V26H85.4457V7.5Z" fill="black"/>
<path d="M0.939346 33.9393C0.353546 34.5251 0.353546 35.4749 0.939346 36.0606L10.4853 45.6066C11.0711 46.1924 12.0208 46.1924 12.6066 45.6066C13.1924 45.0208 13.1924 44.0711 12.6066 43.4853L4.12132 35L12.6066 26.5147C13.1924 25.9289 13.1924 24.9792 12.6066 24.3934C12.0208 23.8076 11.0711 23.8076 10.4853 24.3934L0.939346 33.9393ZM134 33.5L2 33.5L2 36.5L134 36.5L134 33.5Z" fill="#FF8025"/>
</svg>
