<svg width="437" height="148" viewBox="0 0 437 148" fill="none" xmlns="http://www.w3.org/2000/svg">
<path d="M434.071 81.0711C437.976 77.1659 437.976 70.8342 434.071 66.929L370.431 3.28935C366.526 -0.615889 360.195 -0.61589 356.289 3.28935C352.384 7.1946 352.384 13.5262 356.289 17.4315L412.858 74L356.289 130.569C352.384 134.474 352.384 140.805 356.289 144.711C360.195 148.616 366.526 148.616 370.431 144.711L434.071 81.0711ZM-8.74228e-07 84L427 84L427 64L8.74228e-07 64L-8.74228e-07 84Z" fill="#FF8025"/>
<path d="M151.8 44.62H158.1V23.48H151.8V21.1H160.9V44.62H167.2V47H151.8V44.62ZM180.486 47.42C179.226 47.42 178.083 47.1983 177.056 46.755C176.053 46.3117 175.19 45.6817 174.466 44.865C173.766 44.025 173.23 43.0333 172.856 41.89C172.483 40.7233 172.296 39.4167 172.296 37.97C172.296 36.5467 172.483 35.2517 172.856 34.085C173.23 32.9183 173.766 31.9267 174.466 31.11C175.19 30.27 176.053 29.6283 177.056 29.185C178.083 28.7417 179.226 28.52 180.486 28.52C181.746 28.52 182.878 28.7417 183.881 29.185C184.908 29.6283 185.771 30.27 186.471 31.11C187.195 31.9267 187.743 32.9183 188.116 34.085C188.49 35.2517 188.676 36.5467 188.676 37.97C188.676 39.4167 188.49 40.7233 188.116 41.89C187.743 43.0333 187.195 44.025 186.471 44.865C185.771 45.6817 184.908 46.3117 183.881 46.755C182.878 47.1983 181.746 47.42 180.486 47.42ZM180.486 45.005C182.05 45.005 183.31 44.5383 184.266 43.605C185.223 42.6717 185.701 41.225 185.701 39.265V36.675C185.701 34.715 185.223 33.2683 184.266 32.335C183.31 31.4017 182.05 30.935 180.486 30.935C178.923 30.935 177.663 31.4017 176.706 32.335C175.75 33.2683 175.271 34.715 175.271 36.675V39.265C175.271 41.225 175.75 42.6717 176.706 43.605C177.663 44.5383 178.923 45.005 180.486 45.005ZM210.608 49.065C210.608 50.885 209.849 52.2267 208.333 53.09C206.816 53.9767 204.541 54.42 201.508 54.42C198.591 54.42 196.491 54.035 195.208 53.265C193.948 52.495 193.318 51.3867 193.318 49.94C193.318 48.96 193.574 48.2017 194.088 47.665C194.601 47.1283 195.324 46.7317 196.258 46.475V46.055C195.744 45.7983 195.348 45.4717 195.068 45.075C194.788 44.6783 194.648 44.1767 194.648 43.57C194.648 42.6367 194.951 41.9367 195.558 41.47C196.188 41.0033 196.969 40.6533 197.903 40.42V40.28C196.783 39.79 195.908 39.0667 195.278 38.11C194.671 37.1533 194.368 36.0333 194.368 34.75C194.368 33.84 194.531 33 194.858 32.23C195.184 31.46 195.651 30.8067 196.258 30.27C196.888 29.71 197.634 29.2783 198.498 28.975C199.361 28.6717 200.318 28.52 201.368 28.52C202.721 28.52 203.911 28.765 204.938 29.255V28.94C204.938 28.24 205.101 27.6567 205.428 27.19C205.754 26.7233 206.314 26.49 207.108 26.49H210.433V28.94H206.373V30.165C207.026 30.725 207.528 31.39 207.878 32.16C208.228 32.93 208.403 33.7933 208.403 34.75C208.403 35.66 208.228 36.5 207.878 37.27C207.551 38.04 207.084 38.705 206.478 39.265C205.871 39.8017 205.124 40.2217 204.238 40.525C203.374 40.8283 202.418 40.98 201.368 40.98C201.064 40.98 200.773 40.9683 200.493 40.945C200.213 40.9217 199.933 40.8867 199.653 40.84C199.373 40.8867 199.081 40.9683 198.778 41.085C198.474 41.1783 198.194 41.3183 197.938 41.505C197.681 41.6683 197.471 41.8667 197.308 42.1C197.144 42.3333 197.063 42.6017 197.063 42.905C197.063 43.4417 197.331 43.8033 197.868 43.99C198.404 44.1533 199.104 44.235 199.968 44.235H203.958C206.291 44.235 207.983 44.6783 209.033 45.565C210.083 46.4283 210.608 47.595 210.608 49.065ZM207.983 49.205C207.983 48.4817 207.691 47.8983 207.108 47.455C206.524 47.035 205.509 46.825 204.063 46.825H197.798C196.584 47.315 195.978 48.1317 195.978 49.275C195.978 50.0683 196.293 50.745 196.923 51.305C197.553 51.8883 198.603 52.18 200.073 52.18H202.803C204.436 52.18 205.708 51.9233 206.618 51.41C207.528 50.92 207.983 50.185 207.983 49.205ZM201.368 38.81C202.768 38.81 203.794 38.4833 204.448 37.83C205.124 37.1767 205.463 36.3133 205.463 35.24V34.225C205.463 33.1517 205.124 32.3 204.448 31.67C203.794 31.0167 202.768 30.69 201.368 30.69C199.968 30.69 198.941 31.0167 198.288 31.67C197.634 32.3 197.308 33.1517 197.308 34.225V35.24C197.308 36.3133 197.634 37.1767 198.288 37.83C198.941 38.4833 199.968 38.81 201.368 38.81ZM214.059 52.915V50.325H230.859V52.915H214.059ZM244.565 24.95C243.749 24.95 243.177 24.7867 242.85 24.46C242.524 24.11 242.36 23.6783 242.36 23.165V22.605C242.36 22.0917 242.524 21.6717 242.85 21.345C243.177 20.995 243.749 20.82 244.565 20.82C245.382 20.82 245.954 20.995 246.28 21.345C246.607 21.6717 246.77 22.0917 246.77 22.605V23.165C246.77 23.6783 246.607 24.11 246.28 24.46C245.954 24.7867 245.382 24.95 244.565 24.95ZM236.655 44.62H243.165V31.32H236.655V28.94H245.965V44.62H252.055V47H236.655V44.62ZM257.362 47V28.94H260.162V31.88H260.302C260.488 31.4367 260.722 31.0167 261.002 30.62C261.282 30.2 261.62 29.8383 262.017 29.535C262.437 29.2317 262.927 28.9867 263.487 28.8C264.047 28.6133 264.7 28.52 265.447 28.52C267.337 28.52 268.853 29.1267 269.997 30.34C271.14 31.53 271.712 33.2217 271.712 35.415V47H268.912V35.905C268.912 34.2483 268.55 33.0233 267.827 32.23C267.103 31.4133 266.042 31.005 264.642 31.005C264.082 31.005 263.533 31.075 262.997 31.215C262.46 31.355 261.982 31.565 261.562 31.845C261.142 32.125 260.803 32.4867 260.547 32.93C260.29 33.3733 260.162 33.8867 260.162 34.47V47H257.362Z" fill="black"/>
</svg>
