<svg width="437" height="148" viewBox="0 0 437 148" fill="none" xmlns="http://www.w3.org/2000/svg">
<path d="M434.071 81.0711C437.976 77.1659 437.976 70.8342 434.071 66.929L370.431 3.28935C366.526 -0.615889 360.195 -0.61589 356.289 3.28935C352.384 7.1946 352.384 13.5262 356.289 17.4315L412.858 74L356.289 130.569C352.384 134.474 352.384 140.805 356.289 144.711C360.195 148.616 366.526 148.616 370.431 144.711L434.071 81.0711ZM-8.74228e-07 84L427 84L427 64L8.74228e-07 64L-8.74228e-07 84Z" fill="#FF8025"/>
<path d="M150.71 47.42C148.82 47.42 147.187 47.105 145.81 46.475C144.457 45.8217 143.302 44.9583 142.345 43.885L144.235 42.24C145.098 43.15 146.043 43.85 147.07 44.34C148.097 44.83 149.333 45.075 150.78 45.075C152.18 45.075 153.323 44.83 154.21 44.34C155.12 43.8267 155.575 43.0333 155.575 41.96C155.575 41.4933 155.482 41.1083 155.295 40.805C155.132 40.4783 154.898 40.2217 154.595 40.035C154.292 39.8483 153.953 39.7083 153.58 39.615C153.207 39.4983 152.81 39.405 152.39 39.335L149.555 38.915C148.925 38.8217 148.237 38.6933 147.49 38.53C146.767 38.3667 146.102 38.11 145.495 37.76C144.888 37.3867 144.375 36.8967 143.955 36.29C143.558 35.6833 143.36 34.89 143.36 33.91C143.36 33 143.535 32.2183 143.885 31.565C144.258 30.8883 144.772 30.3283 145.425 29.885C146.078 29.4183 146.848 29.08 147.735 28.87C148.622 28.6367 149.59 28.52 150.64 28.52C152.273 28.52 153.685 28.7767 154.875 29.29C156.088 29.8033 157.127 30.515 157.99 31.425L156.17 33.14C155.96 32.8833 155.692 32.6267 155.365 32.37C155.062 32.09 154.677 31.845 154.21 31.635C153.767 31.4017 153.242 31.215 152.635 31.075C152.028 30.935 151.328 30.865 150.535 30.865C149.112 30.865 148.015 31.11 147.245 31.6C146.498 32.09 146.125 32.8017 146.125 33.735C146.125 34.2017 146.207 34.5983 146.37 34.925C146.557 35.2283 146.802 35.4733 147.105 35.66C147.408 35.8467 147.747 35.9983 148.12 36.115C148.517 36.2083 148.913 36.29 149.31 36.36L152.145 36.78C152.798 36.8733 153.487 37.0017 154.21 37.165C154.933 37.3283 155.598 37.5967 156.205 37.97C156.812 38.32 157.313 38.7983 157.71 39.405C158.13 40.0117 158.34 40.805 158.34 41.785C158.34 43.5817 157.64 44.97 156.24 45.95C154.863 46.93 153.02 47.42 150.71 47.42ZM172.606 24.95C171.79 24.95 171.218 24.7867 170.891 24.46C170.565 24.11 170.401 23.6783 170.401 23.165V22.605C170.401 22.0917 170.565 21.6717 170.891 21.345C171.218 20.995 171.79 20.82 172.606 20.82C173.423 20.82 173.995 20.995 174.321 21.345C174.648 21.6717 174.811 22.0917 174.811 22.605V23.165C174.811 23.6783 174.648 24.11 174.321 24.46C173.995 24.7867 173.423 24.95 172.606 24.95ZM164.696 44.62H171.206V31.32H164.696V28.94H174.006V44.62H180.096V47H164.696V44.62ZM201.608 49.065C201.608 50.885 200.849 52.2267 199.333 53.09C197.816 53.9767 195.541 54.42 192.508 54.42C189.591 54.42 187.491 54.035 186.208 53.265C184.948 52.495 184.318 51.3867 184.318 49.94C184.318 48.96 184.574 48.2017 185.088 47.665C185.601 47.1283 186.324 46.7317 187.258 46.475V46.055C186.744 45.7983 186.348 45.4717 186.068 45.075C185.788 44.6783 185.648 44.1767 185.648 43.57C185.648 42.6367 185.951 41.9367 186.558 41.47C187.188 41.0033 187.969 40.6533 188.903 40.42V40.28C187.783 39.79 186.908 39.0667 186.278 38.11C185.671 37.1533 185.368 36.0333 185.368 34.75C185.368 33.84 185.531 33 185.858 32.23C186.184 31.46 186.651 30.8067 187.258 30.27C187.888 29.71 188.634 29.2783 189.498 28.975C190.361 28.6717 191.318 28.52 192.368 28.52C193.721 28.52 194.911 28.765 195.938 29.255V28.94C195.938 28.24 196.101 27.6567 196.428 27.19C196.754 26.7233 197.314 26.49 198.108 26.49H201.433V28.94H197.373V30.165C198.026 30.725 198.528 31.39 198.878 32.16C199.228 32.93 199.403 33.7933 199.403 34.75C199.403 35.66 199.228 36.5 198.878 37.27C198.551 38.04 198.084 38.705 197.478 39.265C196.871 39.8017 196.124 40.2217 195.238 40.525C194.374 40.8283 193.418 40.98 192.368 40.98C192.064 40.98 191.773 40.9683 191.493 40.945C191.213 40.9217 190.933 40.8867 190.653 40.84C190.373 40.8867 190.081 40.9683 189.778 41.085C189.474 41.1783 189.194 41.3183 188.938 41.505C188.681 41.6683 188.471 41.8667 188.308 42.1C188.144 42.3333 188.063 42.6017 188.063 42.905C188.063 43.4417 188.331 43.8033 188.868 43.99C189.404 44.1533 190.104 44.235 190.968 44.235H194.958C197.291 44.235 198.983 44.6783 200.033 45.565C201.083 46.4283 201.608 47.595 201.608 49.065ZM198.983 49.205C198.983 48.4817 198.691 47.8983 198.108 47.455C197.524 47.035 196.509 46.825 195.063 46.825H188.798C187.584 47.315 186.978 48.1317 186.978 49.275C186.978 50.0683 187.293 50.745 187.923 51.305C188.553 51.8883 189.603 52.18 191.073 52.18H193.803C195.436 52.18 196.708 51.9233 197.618 51.41C198.528 50.92 198.983 50.185 198.983 49.205ZM192.368 38.81C193.768 38.81 194.794 38.4833 195.448 37.83C196.124 37.1767 196.463 36.3133 196.463 35.24V34.225C196.463 33.1517 196.124 32.3 195.448 31.67C194.794 31.0167 193.768 30.69 192.368 30.69C190.968 30.69 189.941 31.0167 189.288 31.67C188.634 32.3 188.308 33.1517 188.308 34.225V35.24C188.308 36.3133 188.634 37.1767 189.288 37.83C189.941 38.4833 190.968 38.81 192.368 38.81ZM206.389 47V28.94H209.189V31.88H209.329C209.516 31.4367 209.749 31.0167 210.029 30.62C210.309 30.2 210.647 29.8383 211.044 29.535C211.464 29.2317 211.954 28.9867 212.514 28.8C213.074 28.6133 213.727 28.52 214.474 28.52C216.364 28.52 217.881 29.1267 219.024 30.34C220.167 31.53 220.739 33.2217 220.739 35.415V47H217.939V35.905C217.939 34.2483 217.577 33.0233 216.854 32.23C216.131 31.4133 215.069 31.005 213.669 31.005C213.109 31.005 212.561 31.075 212.024 31.215C211.487 31.355 211.009 31.565 210.589 31.845C210.169 32.125 209.831 32.4867 209.574 32.93C209.317 33.3733 209.189 33.8867 209.189 34.47V47H206.389ZM226.045 52.915V50.325H242.845V52.915H226.045ZM259.702 44.06H259.562C259.375 44.5033 259.142 44.935 258.862 45.355C258.582 45.7517 258.232 46.1017 257.812 46.405C257.415 46.7083 256.937 46.9533 256.377 47.14C255.817 47.3267 255.163 47.42 254.417 47.42C252.527 47.42 251.01 46.825 249.867 45.635C248.723 44.4217 248.152 42.7183 248.152 40.525V28.94H250.952V40.035C250.952 41.6917 251.313 42.9283 252.037 43.745C252.76 44.5383 253.822 44.935 255.222 44.935C255.782 44.935 256.33 44.865 256.867 44.725C257.403 44.585 257.882 44.375 258.302 44.095C258.722 43.815 259.06 43.465 259.317 43.045C259.573 42.6017 259.702 42.0767 259.702 41.47V28.94H262.502V47H259.702V44.06ZM269.243 28.94H272.043V31.88H272.183C273.35 29.64 275.205 28.52 277.748 28.52C279.965 28.52 281.691 29.3483 282.928 31.005C284.188 32.6617 284.818 34.9833 284.818 37.97C284.818 40.9567 284.188 43.2783 282.928 44.935C281.691 46.5917 279.965 47.42 277.748 47.42C275.205 47.42 273.35 46.3 272.183 44.06H272.043V54H269.243V28.94ZM276.663 44.935C278.296 44.935 279.556 44.445 280.443 43.465C281.353 42.4617 281.808 41.1433 281.808 39.51V36.43C281.808 34.7967 281.353 33.49 280.443 32.51C279.556 31.5067 278.296 31.005 276.663 31.005C276.033 31.005 275.438 31.0867 274.878 31.25C274.318 31.4133 273.828 31.6583 273.408 31.985C272.988 32.2883 272.65 32.6733 272.393 33.14C272.16 33.5833 272.043 34.1083 272.043 34.715V41.225C272.043 41.8317 272.16 42.3683 272.393 42.835C272.65 43.2783 272.988 43.6633 273.408 43.99C273.828 44.2933 274.318 44.5267 274.878 44.69C275.438 44.8533 276.033 44.935 276.663 44.935Z" fill="black"/>
</svg>
